# xmcd
# 
# Track frame offsets:
#     150
#     23572
#     41309
#     69407
#     95575
#     123175
#     141328
#     157730
#     191979
#     219738
#     242614
#     260235
#     282417
# 
# Disc length: 4071
# 
# Revision: 2
# Processed by: cddbd v1.5.2PL0 Copyright (c) Steve Scherf et al.
# Submitted via: BonkEnc v1.0.15
# 
DISCID=bc0fe50d
DTITLE=Various Artist - Where Blues Meets Rock VIII
DYEAR=2010
DGENRE=Blues
TTITLE0=Philip Sayce - Changes
TTITLE1=Joe Bonamassa - When The Fire Hits The Sea
TTITLE2=Walter Trout - The Love Song Of J. Alfred Blues Rock
TTITLE3=Popa Chubby - We Got Some Rockin' To Do
TTITLE4=Mitch Laddie - Here's A Drink
TTITLE5=Scott McKeon - I Can Tell
TTITLE6=Stefan Schill - Take On My Beliefs
TTITLE7=Rick Derringer - Knighted By The Blues
TTITLE8=Michael Landau and Robben Ford - The Darkness
TTITLE9=Gov't Mule - Railroad Boy
TTITLE10=Monte Montgomery - Everything About You
TTITLE11=John Norum - Let It Shine
TTITLE12=Philip Sayce - Alchemy
EXTD=
EXTT0=
EXTT1=
EXTT2=
EXTT3=
EXTT4=
EXTT5=
EXTT6=
EXTT7=
EXTT8=
EXTT9=
EXTT10=
EXTT11=
EXTT12=
PLAYORDER=
